{
	"asset":{
		"generator":"Khronos glTF Blender I/O v3.5.30",
		"version":"2.0"
	},
	"extensionsUsed":[
		"KHR_materials_transmission",
		"KHR_materials_ior"
	],
	"scene":0,
	"scenes":[
		{
			"name":"Scene",
			"nodes":[
				0
			]
		}
	],
	"nodes":[
		{
			"mesh":0,
			"name":"monstarboi",
			"rotation":[
				0.05323341116309166,
				0.3106405735015869,
				0.05391770973801613,
				0.9475027918815613
			],
			"scale":[
				1.2741416692733765,
				1.2741416692733765,
				1.274141550064087
			],
			"translation":[
				-0.8839237093925476,
				1.5983250141143799,
				1.9643573760986328
			]
		}
	],
	"animations":[
		{
			"channels":[
				{
					"sampler":0,
					"target":{
						"node":0,
						"path":"translation"
					}
				},
				{
					"sampler":1,
					"target":{
						"node":0,
						"path":"rotation"
					}
				},
				{
					"sampler":2,
					"target":{
						"node":0,
						"path":"scale"
					}
				}
			],
			"name":"monstarboi",
			"samplers":[
				{
					"input":12,
					"interpolation":"LINEAR",
					"output":13
				},
				{
					"input":12,
					"interpolation":"LINEAR",
					"output":14
				},
				{
					"input":12,
					"interpolation":"LINEAR",
					"output":15
				}
			]
		}
	],
	"materials":[
		{
			"doubleSided":true,
			"name":"base",
			"pbrMetallicRoughness":{
				"metallicFactor":0,
				"metallicRoughnessTexture":{
					"index":0
				}
			}
		},
		{
			"doubleSided":true,
			"extensions":{
				"KHR_materials_transmission":{
					"transmissionFactor":0.5727272629737854
				},
				"KHR_materials_ior":{
					"ior":1.409999966621399
				}
			},
			"name":"eye",
			"pbrMetallicRoughness":{
				"baseColorFactor":[
					0.003787491237744689,
					0.003787491237744689,
					0.003787491237744689,
					1
				],
				"metallicFactor":0,
				"roughnessFactor":0.029999999329447746
			}
		},
		{
			"doubleSided":true,
			"name":"teeth",
			"pbrMetallicRoughness":{
				"baseColorFactor":[
					0.8000000715255737,
					0.69475257396698,
					0.5724416971206665,
					1
				],
				"metallicFactor":0,
				"roughnessFactor":0.1473430097103119
			}
		}
	],
	"meshes":[
		{
			"name":"Roundcube",
			"primitives":[
				{
					"attributes":{
						"POSITION":0,
						"TEXCOORD_0":1,
						"NORMAL":2
					},
					"indices":3,
					"material":0
				},
				{
					"attributes":{
						"POSITION":4,
						"TEXCOORD_0":5,
						"NORMAL":6
					},
					"indices":7,
					"material":1
				},
				{
					"attributes":{
						"POSITION":8,
						"TEXCOORD_0":9,
						"NORMAL":10
					},
					"indices":11,
					"material":2
				}
			]
		}
	],
	"textures":[
		{
			"sampler":0,
			"source":0
		}
	],
	"images":[
		{
			"mimeType":"image/png",
			"name":"Image",
			"uri":"Image.png"
		}
	],
	"accessors":[
		{
			"bufferView":0,
			"componentType":5126,
			"count":19788,
			"max":[
				1.1687662601470947,
				2.5047621726989746,
				1.0012422800064087
			],
			"min":[
				-1.1689687967300415,
				-1.3759963512420654,
				-0.9617925882339478
			],
			"type":"VEC3"
		},
		{
			"bufferView":1,
			"componentType":5126,
			"count":19788,
			"type":"VEC2"
		},
		{
			"bufferView":2,
			"componentType":5126,
			"count":19788,
			"type":"VEC3"
		},
		{
			"bufferView":3,
			"componentType":5123,
			"count":105258,
			"type":"SCALAR"
		},
		{
			"bufferView":4,
			"componentType":5126,
			"count":772,
			"max":[
				0.8516685962677002,
				2.061142921447754,
				0.5583460330963135
			],
			"min":[
				-0.8623716831207275,
				1.6320738792419434,
				0.09128490090370178
			],
			"type":"VEC3"
		},
		{
			"bufferView":5,
			"componentType":5126,
			"count":772,
			"type":"VEC2"
		},
		{
			"bufferView":6,
			"componentType":5126,
			"count":772,
			"type":"VEC3"
		},
		{
			"bufferView":7,
			"componentType":5123,
			"count":4608,
			"type":"SCALAR"
		},
		{
			"bufferView":8,
			"componentType":5126,
			"count":4422,
			"max":[
				0.17716647684574127,
				1.3559808731079102,
				0.908484935760498
			],
			"min":[
				-0.11896109580993652,
				1.039610505104065,
				0.7837957739830017
			],
			"type":"VEC3"
		},
		{
			"bufferView":9,
			"componentType":5126,
			"count":4422,
			"type":"VEC2"
		},
		{
			"bufferView":10,
			"componentType":5126,
			"count":4422,
			"type":"VEC3"
		},
		{
			"bufferView":11,
			"componentType":5123,
			"count":26520,
			"type":"SCALAR"
		},
		{
			"bufferView":12,
			"componentType":5126,
			"count":481,
			"max":[
				20.041666666666668
			],
			"min":[
				0.041666666666666664
			],
			"type":"SCALAR"
		},
		{
			"bufferView":13,
			"componentType":5126,
			"count":481,
			"type":"VEC3"
		},
		{
			"bufferView":14,
			"componentType":5126,
			"count":481,
			"type":"VEC4"
		},
		{
			"bufferView":15,
			"componentType":5126,
			"count":481,
			"type":"VEC3"
		}
	],
	"bufferViews":[
		{
			"buffer":0,
			"byteLength":237456,
			"byteOffset":0,
			"target":34962
		},
		{
			"buffer":0,
			"byteLength":158304,
			"byteOffset":237456,
			"target":34962
		},
		{
			"buffer":0,
			"byteLength":237456,
			"byteOffset":395760,
			"target":34962
		},
		{
			"buffer":0,
			"byteLength":210516,
			"byteOffset":633216,
			"target":34963
		},
		{
			"buffer":0,
			"byteLength":9264,
			"byteOffset":843732,
			"target":34962
		},
		{
			"buffer":0,
			"byteLength":6176,
			"byteOffset":852996,
			"target":34962
		},
		{
			"buffer":0,
			"byteLength":9264,
			"byteOffset":859172,
			"target":34962
		},
		{
			"buffer":0,
			"byteLength":9216,
			"byteOffset":868436,
			"target":34963
		},
		{
			"buffer":0,
			"byteLength":53064,
			"byteOffset":877652,
			"target":34962
		},
		{
			"buffer":0,
			"byteLength":35376,
			"byteOffset":930716,
			"target":34962
		},
		{
			"buffer":0,
			"byteLength":53064,
			"byteOffset":966092,
			"target":34962
		},
		{
			"buffer":0,
			"byteLength":53040,
			"byteOffset":1019156,
			"target":34963
		},
		{
			"buffer":0,
			"byteLength":1924,
			"byteOffset":1072196
		},
		{
			"buffer":0,
			"byteLength":5772,
			"byteOffset":1074120
		},
		{
			"buffer":0,
			"byteLength":7696,
			"byteOffset":1079892
		},
		{
			"buffer":0,
			"byteLength":5772,
			"byteOffset":1087588
		}
	],
	"samplers":[
		{
			"magFilter":9729,
			"minFilter":9987
		}
	],
	"buffers":[
		{
			"byteLength":1093360,
			"uri":"IsolateBeaver.bin"
		}
	]
}
